<svg width="268" height="27" viewBox="0 0 268 27" fill="none" xmlns="http://www.w3.org/2000/svg">
<path d="M47.5442 14.1613C45.5668 14.1618 43.9144 13.4858 42.5871 12.1332C41.2598 10.7676 40.5959 9.08958 40.5954 7.09916C40.5949 5.12176 41.2579 3.4499 42.5845 2.08358C43.911 0.717257 45.5956 0.0338244 47.638 0.0332806C48.8218 0.0329654 49.8236 0.214828 50.6433 0.578868C51.476 0.942904 52.2567 1.46957 52.9854 2.15886L51.4442 3.93503C50.2211 2.80356 48.946 2.238 47.6191 2.23835C46.3182 2.23869 45.2385 2.70731 44.3802 3.64421C43.5348 4.5811 43.1123 5.73253 43.1127 7.09849C43.113 8.45145 43.5426 9.60265 44.4015 10.5521C45.2604 11.4885 46.3337 11.9566 47.6217 11.9562C48.4022 11.956 49.0917 11.8127 49.69 11.5264C50.2884 11.227 50.9062 10.778 51.5435 10.1794L53.0855 11.7401C52.3181 12.5469 51.5052 13.1521 50.6467 13.5556C49.7882 13.9591 48.7541 14.161 47.5442 14.1613Z" fill="white"/>
<path d="M66.877 12.0877C65.5244 13.467 63.8138 14.157 61.7454 14.1575C59.6769 14.1581 57.9725 13.4756 56.6322 12.11C55.2919 10.7443 54.6215 9.07283 54.621 7.09543C54.6204 5.14405 55.2965 3.47869 56.6491 2.09935C58.0017 0.72001 59.7122 0.0300658 61.7806 0.0295151C63.8491 0.0289643 65.5535 0.711494 66.8938 2.07711C68.2341 3.44272 68.9046 5.11422 68.9051 7.09163C68.9056 9.04301 68.2296 10.7084 66.877 12.0877ZM58.4466 10.5484C59.3315 11.4848 60.4439 11.9528 61.7838 11.9525C63.1238 11.9521 64.2229 11.4835 65.0813 10.5466C65.9527 9.6097 66.3882 8.45826 66.3878 7.0923C66.3874 5.73934 65.9448 4.59464 65.0599 3.65821C64.1881 2.70877 63.0822 2.23423 61.7422 2.23459C60.4023 2.23494 59.2966 2.70357 58.4252 3.64047C57.5669 4.57736 57.1379 5.72879 57.1382 7.09476C57.1386 8.44772 57.5747 9.59892 58.4466 10.5484Z" fill="white"/>
<path d="M71.8068 13.9207L71.8032 0.261012L74.0278 0.26042L81.348 9.70317L81.3455 0.258471L83.7066 0.257842L83.7103 13.9175L81.7003 13.9181L74.1654 4.20218L74.168 13.9201L71.8068 13.9207Z" fill="white"/>
<path d="M92.0045 14.1105C89.8319 14.111 87.9324 13.383 86.3058 11.9264L87.7494 10.2088C89.1157 11.3923 90.5534 11.9838 92.0624 11.9834C92.804 11.9832 93.3893 11.827 93.8186 11.5146C94.2608 11.1893 94.4818 10.7599 94.4817 10.2265C94.4816 9.71918 94.2733 9.31595 93.8569 9.01685C93.4406 8.70474 92.6209 8.40575 91.3979 8.11987C89.8107 7.74303 88.6528 7.2685 87.9241 6.69629C87.2084 6.11106 86.8504 5.22002 86.8501 4.02318C86.8498 2.85235 87.2854 1.90256 88.1568 1.17381C89.0282 0.43205 90.1469 0.0609895 91.5129 0.0606258C93.3862 0.0601271 95.0385 0.632093 96.4699 1.77652L95.1824 3.59165C93.9203 2.65533 92.6843 2.18732 91.4744 2.18764C90.7849 2.18783 90.2386 2.34408 89.8354 2.65641C89.4452 2.96874 89.2502 3.36557 89.2503 3.84691C89.2504 4.38029 89.4652 4.79653 89.8946 5.09563C90.337 5.38171 91.2022 5.68069 92.4902 5.99257C93.9993 6.35643 95.1052 6.84398 95.8079 7.45523C96.5236 8.06647 96.8815 8.92498 96.8818 10.0308C96.8822 11.2927 96.4336 12.288 95.5362 13.0167C94.6387 13.7455 93.4615 14.1101 92.0045 14.1105Z" fill="white"/>
<path d="M105.306 14.1264C103.498 14.1269 102.073 13.6134 101.032 12.586C100.004 11.5585 99.4898 10.0691 99.4893 8.11772L99.4872 0.253641L101.887 0.253002L101.89 8.01951C101.89 9.26839 102.196 10.231 102.807 10.9073C103.419 11.5836 104.265 11.9216 105.344 11.9214C106.424 11.9211 107.263 11.5956 107.862 10.945C108.473 10.2944 108.778 9.35112 108.778 8.11524L108.776 0.251168L111.176 0.250529L111.178 7.99752C111.179 9.98793 110.659 11.5101 109.618 12.5642C108.578 13.6052 107.14 14.1259 105.306 14.1264Z" fill="white"/>
<path d="M114.474 13.9093L114.471 0.249651L116.871 0.249012L116.874 11.7231L124.055 11.7212L124.056 13.9068L114.474 13.9093Z" fill="white"/>
<path d="M127.969 13.9057L127.966 2.47064L123.634 2.47179L123.633 0.247212L134.717 0.244261L134.717 2.46884L130.385 2.46999L130.388 13.9051L127.969 13.9057Z" fill="white"/>
<path d="M137.402 13.9032L137.399 0.243547L139.799 0.242908L139.803 13.9026L137.402 13.9032Z" fill="white"/>
<path d="M143.459 13.9016L143.456 0.241934L145.68 0.241342L153 9.68409L152.998 0.239393L155.359 0.238765L155.363 13.8984L153.353 13.899L145.818 4.1831L145.82 13.901L143.459 13.9016Z" fill="white"/>
<path d="M165.355 14.13C163.247 14.1305 161.536 13.4675 160.222 12.1409C158.921 10.8013 158.27 9.11028 158.269 7.06783C158.269 5.11645 158.932 3.45109 160.258 2.07176C161.598 0.692427 163.282 0.00248966 165.312 0.00194931C166.457 0.0016445 167.432 0.157495 168.239 0.469502C169.046 0.768499 169.82 1.23012 170.561 1.85437L169.04 3.66956C168.467 3.17536 167.888 2.81126 167.303 2.57724C166.73 2.33022 166.034 2.20682 165.215 2.20704C163.966 2.20737 162.912 2.68249 162.054 3.63239C161.209 4.58229 160.786 5.72721 160.786 7.06716C160.787 8.48517 161.216 9.65588 162.075 10.5793C162.934 11.4897 164.053 11.9448 165.432 11.9444C166.707 11.944 167.806 11.599 168.73 10.9093L168.729 8.35296L165.236 8.35389L165.235 6.26591L171.05 6.26436L171.052 12.0014C169.4 13.4199 167.501 14.1294 165.355 14.13Z" fill="white"/>
<path d="M41.7718 24.121H41.0295V19.9456H43.6739V20.6415H41.7718V24.121Z" fill="white"/>
<path d="M49.4944 25.9767H48.7521V19.9456H49.4944V20.4374C49.6429 20.2642 49.847 20.125 50.1068 20.0198C50.3666 19.9085 50.6357 19.8528 50.9141 19.8528C51.5079 19.8528 51.9749 20.0508 52.3151 20.4466C52.6677 20.8363 52.844 21.3436 52.844 21.9683C52.844 22.6055 52.643 23.1405 52.2409 23.5735C51.845 24.0003 51.3223 24.2137 50.6728 24.2137C50.1718 24.2137 49.779 24.1179 49.4944 23.9261V25.9767ZM50.7006 20.5487C50.2058 20.5487 49.8037 20.7405 49.4944 21.124V23.1931C49.8223 23.4096 50.1934 23.5178 50.6079 23.5178C51.047 23.5178 51.3965 23.3787 51.6563 23.1003C51.9223 22.8158 52.0553 22.4477 52.0553 21.9962C52.0553 21.557 51.9347 21.2075 51.6935 20.9477C51.4522 20.6817 51.1213 20.5487 50.7006 20.5487Z" fill="white"/>
<path d="M61.0563 19.9456H61.9007L60.2305 24.121C59.9274 24.8571 59.6646 25.3457 59.4419 25.587C59.2068 25.8468 58.9377 25.9767 58.6346 25.9767C58.3625 25.9767 58.0996 25.8901 57.846 25.7169L58.0872 25.1509C58.2851 25.2437 58.4398 25.2901 58.5511 25.2901C58.7243 25.2901 58.879 25.2158 59.0151 25.0674C59.1573 24.9189 59.2996 24.6777 59.4419 24.3436L59.5347 24.121L57.5305 19.9456H58.4212L59.646 22.5993C59.6707 22.6426 59.7542 22.8529 59.8965 23.2302C59.9522 23.0261 60.0171 22.8127 60.0914 22.59L61.0563 19.9456Z" fill="white"/>
<path d="M70.7822 24.121H70.04V20.6415H67.7667V24.121H67.0244V19.9456H70.7822V24.121Z" fill="white"/>
<path d="M80.2446 24.121H79.5023V20.6415H77.229V24.121H76.4868V19.9456H80.2446V24.121Z" fill="white"/>
<path d="M86.1718 20.8271L85.9769 20.2332C86.3914 19.9796 86.8553 19.8528 87.3687 19.8528C87.9316 19.8528 88.3399 19.992 88.5935 20.2703C88.8471 20.5487 88.9739 20.9786 88.9739 21.5601V24.121H88.2687V23.5828C87.9409 23.9849 87.4955 24.1859 86.9326 24.1859C86.5491 24.1859 86.2398 24.0715 86.0048 23.8426C85.7697 23.6075 85.6522 23.2921 85.6522 22.8962C85.6522 22.4879 85.7976 22.1663 86.0883 21.9312C86.379 21.69 86.7594 21.5693 87.2295 21.5693C87.6687 21.5693 88.0151 21.659 88.2687 21.8384C88.2687 21.3683 88.2038 21.0312 88.0739 20.8271C87.944 20.6229 87.6935 20.5209 87.3223 20.5209C86.945 20.5209 86.5615 20.6229 86.1718 20.8271ZM87.1924 23.5178C87.6069 23.5178 87.9656 23.3385 88.2687 22.9797V22.4508C88.0089 22.2652 87.6966 22.1725 87.3316 22.1725C87.078 22.1725 86.8646 22.2343 86.6914 22.358C86.5244 22.4756 86.4409 22.6426 86.4409 22.8591C86.4409 23.0632 86.5058 23.224 86.6357 23.3416C86.7718 23.4591 86.9574 23.5178 87.1924 23.5178Z" fill="white"/>
<path d="M103.704 19.9456H104.679L102.851 21.9405L104.855 24.121H103.825L101.941 21.9869L103.704 19.9456ZM101.765 24.121H101.023V19.9456H101.765V24.121Z" fill="white"/>
<path d="M110.112 23.6014C109.704 23.1807 109.5 22.658 109.5 22.0333C109.5 21.4023 109.704 20.8827 110.112 20.4745C110.527 20.06 111.065 19.8528 111.727 19.8528C112.389 19.8528 112.924 20.06 113.332 20.4745C113.747 20.8827 113.954 21.4023 113.954 22.0333C113.954 22.6642 113.747 23.1869 113.332 23.6014C112.924 24.0096 112.389 24.2137 111.727 24.2137C111.071 24.2137 110.533 24.0096 110.112 23.6014ZM110.697 20.9662C110.425 21.2384 110.289 21.5941 110.289 22.0333C110.289 22.4725 110.422 22.8281 110.688 23.1003C110.96 23.3787 111.306 23.5178 111.727 23.5178C112.148 23.5178 112.491 23.3818 112.757 23.1096C113.029 22.8312 113.165 22.4725 113.165 22.0333C113.165 21.6065 113.029 21.2508 112.757 20.9662C112.491 20.6879 112.148 20.5487 111.727 20.5487C111.306 20.5487 110.963 20.6879 110.697 20.9662Z" fill="white"/>
<path d="M120.128 24.121H119.386V19.9456H120.063L121.668 22.0147L123.19 19.9456H123.849V24.121H123.106V21.0776L121.659 23.0168H121.631L120.128 21.0776V24.121Z" fill="white"/>
<path d="M133.313 24.121H132.57V20.6415H130.297V24.121H129.555V19.9456H133.313V24.121Z" fill="white"/>
<path d="M139.24 20.8271L139.045 20.2332C139.459 19.9796 139.923 19.8528 140.437 19.8528C141 19.8528 141.408 19.992 141.662 20.2703C141.915 20.5487 142.042 20.9786 142.042 21.5601V24.121H141.337V23.5828C141.009 23.9849 140.564 24.1859 140.001 24.1859C139.617 24.1859 139.308 24.0715 139.073 23.8426C138.838 23.6075 138.72 23.2921 138.72 22.8962C138.72 22.4879 138.866 22.1663 139.156 21.9312C139.447 21.69 139.827 21.5693 140.298 21.5693C140.737 21.5693 141.083 21.659 141.337 21.8384C141.337 21.3683 141.272 21.0312 141.142 20.8271C141.012 20.6229 140.762 20.5209 140.39 20.5209C140.013 20.5209 139.63 20.6229 139.24 20.8271ZM140.26 23.5178C140.675 23.5178 141.034 23.3385 141.337 22.9797V22.4508C141.077 22.2652 140.765 22.1725 140.4 22.1725C140.146 22.1725 139.933 22.2343 139.759 22.358C139.592 22.4756 139.509 22.6426 139.509 22.8591C139.509 23.0632 139.574 23.224 139.704 23.3416C139.84 23.4591 140.025 23.5178 140.26 23.5178Z" fill="white"/>
<path d="M151.45 24.121H150.708V22.358H148.388V24.121H147.646V19.9456H148.388V21.6621H150.708V19.9456H151.45V24.121Z" fill="white"/>
<path d="M160.308 21.0126L157.896 24.121H157.154V19.9456H157.896V23.0539L160.308 19.9456H161.051V24.121H160.308V21.0126Z" fill="white"/>
<path d="M169.916 21.0126L167.503 24.121H166.761V19.9456H167.503V23.0539L169.916 19.9456H170.658V24.121H169.916V21.0126ZM167.355 17.8115H168.051C168.088 18.3002 168.326 18.5445 168.765 18.5445C169.179 18.5445 169.405 18.3002 169.442 17.8115H170.138C170.138 18.1889 170.008 18.5012 169.749 18.7487C169.495 18.9899 169.167 19.1105 168.765 19.1105C168.326 19.1105 167.979 18.993 167.726 18.7579C167.478 18.5167 167.355 18.2012 167.355 17.8115Z" fill="white"/>
<path d="M187.797 0H185.704L177.619 26.2653H179.712L187.797 0Z" fill="white"/>
<path d="M192.394 0H190.301L182.216 26.2653H184.308L192.394 0Z" fill="white"/>
<path d="M208.774 2.7238L198.96 0L212.21 12.5224L208.774 2.7238Z" fill="#31393C" fill-opacity="0.7"/>
<path d="M221.337 11.1428L209.814 3.36053L213.338 13.5129L221.337 11.1428Z" fill="#31393C" fill-opacity="0.7"/>
<path d="M219.787 2.84764L216.122 6.7211L221.637 10.4531L219.787 2.84764Z" fill="#31393C" fill-opacity="0.7"/>
<path d="M224.174 3.60837L220.474 2.60015L221.337 6.13775L224.174 3.60837Z" fill="#31393C" fill-opacity="0.7"/>
<path d="M212.739 14.6272L212.88 19.3319L206.29 19.4204L212.739 14.6272Z" fill="#31393C" fill-opacity="0.7"/>
<path d="M213.461 14.1674L213.602 21.0122L221.144 11.9742L213.461 14.1674Z" fill="#31393C" fill-opacity="0.7"/>
<path d="M209.074 2.7238L199.26 0L212.51 12.5224L209.074 2.7238Z" fill="white"/>
<path d="M221.637 11.1428L210.114 3.36053L213.638 13.5129L221.637 11.1428Z" fill="white"/>
<path d="M220.087 2.84764L216.422 6.7211L221.937 10.4531L220.087 2.84764Z" fill="white"/>
<path d="M224.474 3.60837L220.774 2.60015L221.637 6.13775L224.474 3.60837Z" fill="white"/>
<path d="M213.039 14.6272L213.18 19.3319L206.59 19.4204L213.039 14.6272Z" fill="white"/>
<path d="M213.761 14.1674L213.902 21.0122L221.444 11.9742L213.761 14.1674Z" fill="white"/>
<path d="M230.276 10.5018C229.728 10.5018 229.197 10.4222 228.683 10.2631C228.176 10.104 227.773 9.89295 227.476 9.63003L227.932 8.58181C228.223 8.81706 228.578 9.01079 228.997 9.163C229.423 9.3083 229.85 9.38095 230.276 9.38095C230.803 9.38095 231.195 9.29446 231.452 9.12149C231.716 8.94852 231.848 8.72019 231.848 8.43652C231.848 8.22895 231.774 8.05943 231.625 7.92797C231.483 7.7896 231.3 7.68235 231.077 7.60624C230.854 7.53014 230.55 7.44365 230.164 7.34678C229.623 7.21532 229.183 7.08387 228.845 6.95241C228.514 6.82095 228.226 6.61684 227.983 6.34008C227.746 6.0564 227.628 5.67586 227.628 5.19846C227.628 4.79716 227.733 4.43392 227.942 4.10873C228.159 3.77662 228.48 3.5137 228.906 3.31997C229.339 3.12624 229.866 3.02937 230.489 3.02937C230.922 3.02937 231.348 3.08473 231.767 3.19543C232.186 3.30613 232.548 3.46527 232.852 3.67283L232.437 4.72105C232.125 4.53424 231.801 4.3924 231.463 4.29554C231.124 4.19867 230.796 4.15024 230.479 4.15024C229.958 4.15024 229.569 4.24019 229.312 4.42008C229.062 4.59997 228.936 4.83867 228.936 5.13619C228.936 5.34376 229.007 5.51327 229.15 5.64473C229.298 5.77619 229.484 5.87997 229.707 5.95608C229.931 6.03219 230.235 6.11867 230.621 6.21554C231.148 6.34008 231.581 6.47154 231.919 6.60992C232.257 6.74138 232.545 6.94549 232.781 7.22224C233.025 7.499 233.147 7.87262 233.147 8.34311C233.147 8.74441 233.038 9.10765 232.822 9.43284C232.612 9.75803 232.291 10.0175 231.858 10.2112C231.425 10.4049 230.898 10.5018 230.276 10.5018Z" fill="white"/>
<path d="M235.733 8.02138L234.789 8.93468V10.398H233.521V2.69727H234.789V7.34678L237.417 4.85597H238.939L236.676 7.18073L239.152 10.398H237.61L235.733 8.02138Z" fill="white"/>
<path d="M241.366 10.4707C240.818 10.4707 240.325 10.3496 239.885 10.1074C239.445 9.86527 239.1 9.52971 238.85 9.10073C238.607 8.66484 238.485 8.1736 238.485 7.627C238.485 7.08041 238.607 6.59262 238.85 6.16365C239.1 5.73467 239.445 5.39911 239.885 5.15694C240.325 4.91478 240.818 4.7937 241.366 4.7937C241.921 4.7937 242.418 4.91478 242.857 5.15694C243.297 5.39911 243.639 5.73467 243.882 6.16365C244.132 6.59262 244.257 7.08041 244.257 7.627C244.257 8.1736 244.132 8.66484 243.882 9.10073C243.639 9.52971 243.297 9.86527 242.857 10.1074C242.418 10.3496 241.921 10.4707 241.366 10.4707ZM241.366 9.36019C241.833 9.36019 242.218 9.20106 242.523 8.88279C242.827 8.56452 242.979 8.14592 242.979 7.627C242.979 7.10808 242.827 6.68949 242.523 6.37122C242.218 6.05295 241.833 5.89381 241.366 5.89381C240.899 5.89381 240.514 6.05295 240.21 6.37122C239.912 6.68949 239.763 7.10808 239.763 7.627C239.763 8.14592 239.912 8.56452 240.21 8.88279C240.514 9.20106 240.899 9.36019 241.366 9.36019Z" fill="white"/>
<path d="M244.658 2.69727H245.927V10.398H244.658V2.69727Z" fill="white"/>
<path d="M248.991 8.02138L248.048 8.93468V10.398H246.779V2.69727H248.048V7.34678L250.675 4.85597H252.197L249.935 7.18073L252.41 10.398H250.868L248.991 8.02138Z" fill="white"/>
<path d="M254.624 10.4707C254.077 10.4707 253.583 10.3496 253.143 10.1074C252.704 9.86527 252.359 9.52971 252.108 9.10073C251.865 8.66484 251.743 8.1736 251.743 7.627C251.743 7.08041 251.865 6.59262 252.108 6.16365C252.359 5.73467 252.704 5.39911 253.143 5.15694C253.583 4.91478 254.077 4.7937 254.624 4.7937C255.179 4.7937 255.676 4.91478 256.116 5.15694C256.555 5.39911 256.897 5.73467 257.14 6.16365C257.391 6.59262 257.516 7.08041 257.516 7.627C257.516 8.1736 257.391 8.66484 257.14 9.10073C256.897 9.52971 256.555 9.86527 256.116 10.1074C255.676 10.3496 255.179 10.4707 254.624 10.4707ZM254.624 9.36019C255.091 9.36019 255.477 9.20106 255.781 8.88279C256.085 8.56452 256.237 8.14592 256.237 7.627C256.237 7.10808 256.085 6.68949 255.781 6.37122C255.477 6.05295 255.091 5.89381 254.624 5.89381C254.158 5.89381 253.772 6.05295 253.468 6.37122C253.17 6.68949 253.021 7.10808 253.021 7.627C253.021 8.14592 253.17 8.56452 253.468 8.88279C253.772 9.20106 254.158 9.36019 254.624 9.36019Z" fill="white"/>
<path d="M262.841 4.85597L260.517 10.398H259.209L256.886 4.85597H258.204L259.888 8.96581L261.623 4.85597H262.841Z" fill="white"/>
<path d="M265.108 10.4707C264.56 10.4707 264.066 10.3496 263.627 10.1074C263.187 9.86527 262.842 9.52971 262.592 9.10073C262.348 8.66484 262.227 8.1736 262.227 7.627C262.227 7.08041 262.348 6.59262 262.592 6.16365C262.842 5.73467 263.187 5.39911 263.627 5.15694C264.066 4.91478 264.56 4.7937 265.108 4.7937C265.662 4.7937 266.16 4.91478 266.599 5.15694C267.039 5.39911 267.38 5.73467 267.624 6.16365C267.874 6.59262 267.999 7.08041 267.999 7.627C267.999 8.1736 267.874 8.66484 267.624 9.10073C267.38 9.52971 267.039 9.86527 266.599 10.1074C266.16 10.3496 265.662 10.4707 265.108 10.4707ZM265.108 9.36019C265.575 9.36019 265.96 9.20106 266.264 8.88279C266.569 8.56452 266.721 8.14592 266.721 7.627C266.721 7.10808 266.569 6.68949 266.264 6.37122C265.96 6.05295 265.575 5.89381 265.108 5.89381C264.641 5.89381 264.256 6.05295 263.951 6.37122C263.654 6.68949 263.505 7.10808 263.505 7.627C263.505 8.14592 263.654 8.56452 263.951 8.88279C264.256 9.20106 264.641 9.36019 265.108 9.36019Z" fill="white"/>
<path d="M228.373 15.1119C228.535 14.8103 228.776 14.5808 229.094 14.4234C229.413 14.266 229.799 14.1874 230.255 14.1874V15.102C230.203 15.0955 230.131 15.0922 230.04 15.0922C229.533 15.0922 229.133 15.2463 228.841 15.5545C228.555 15.8561 228.412 16.2888 228.412 16.8527V19.4493H227.476V14.2365H228.373V15.1119Z" fill="white"/>
<path d="M236.031 16.8724C236.031 16.9445 236.025 17.0396 236.012 17.1576H231.819C231.877 17.6166 232.076 17.9871 232.414 18.269C232.758 18.5444 233.184 18.6821 233.691 18.6821C234.309 18.6821 234.806 18.4723 235.183 18.0526L235.7 18.6624C235.466 18.9378 235.173 19.1476 234.822 19.2919C234.478 19.4362 234.091 19.5083 233.662 19.5083C233.116 19.5083 232.631 19.3968 232.209 19.1739C231.786 18.9444 231.458 18.6264 231.224 18.2198C230.997 17.8133 230.883 17.3543 230.883 16.8429C230.883 16.338 230.993 15.8823 231.214 15.4758C231.442 15.0693 231.751 14.7545 232.141 14.5316C232.537 14.3021 232.982 14.1874 233.477 14.1874C233.971 14.1874 234.409 14.3021 234.793 14.5316C235.183 14.7545 235.485 15.0693 235.7 15.4758C235.921 15.8823 236.031 16.3479 236.031 16.8724ZM233.477 14.984C233.028 14.984 232.651 15.1217 232.345 15.3971C232.046 15.6725 231.871 16.0331 231.819 16.479H235.134C235.082 16.0397 234.903 15.6823 234.598 15.4069C234.299 15.125 233.925 14.984 233.477 14.984Z" fill="white"/>
<path d="M238.813 19.5083C238.391 19.5083 237.984 19.4525 237.594 19.3411C237.204 19.2231 236.899 19.0755 236.678 18.8985L237.068 18.151C237.295 18.3149 237.572 18.4461 237.897 18.5444C238.222 18.6428 238.55 18.6919 238.881 18.6919C239.7 18.6919 240.11 18.4559 240.11 17.9838C240.11 17.8264 240.055 17.7019 239.944 17.6101C239.834 17.5183 239.694 17.4527 239.525 17.4133C239.362 17.3675 239.128 17.3183 238.823 17.2658C238.407 17.2003 238.066 17.1248 237.799 17.0396C237.539 16.9544 237.315 16.8101 237.126 16.6069C236.938 16.4036 236.843 16.1184 236.843 15.7512C236.843 15.2791 237.038 14.9021 237.429 14.6201C237.819 14.3316 238.342 14.1874 238.998 14.1874C239.343 14.1874 239.687 14.23 240.032 14.3152C240.376 14.4005 240.659 14.5152 240.88 14.6595L240.48 15.4069C240.058 15.1315 239.561 14.9939 238.989 14.9939C238.592 14.9939 238.29 15.0594 238.082 15.1906C237.874 15.3217 237.77 15.4955 237.77 15.7118C237.77 15.8823 237.828 16.0167 237.945 16.1151C238.062 16.2134 238.205 16.2856 238.374 16.3315C238.55 16.3774 238.794 16.4298 239.106 16.4888C239.522 16.561 239.856 16.6396 240.11 16.7249C240.37 16.8036 240.591 16.9413 240.773 17.138C240.955 17.3347 241.046 17.6101 241.046 17.9641C241.046 18.4362 240.845 18.8132 240.441 19.0952C240.045 19.3706 239.502 19.5083 238.813 19.5083Z" fill="white"/>
<path d="M242.216 14.2365H243.152V19.4493H242.216V14.2365ZM242.684 13.2333C242.502 13.2333 242.349 13.1743 242.226 13.0563C242.109 12.9383 242.05 12.794 242.05 12.6235C242.05 12.4531 242.109 12.3088 242.226 12.1908C242.349 12.0662 242.502 12.0039 242.684 12.0039C242.866 12.0039 243.015 12.0629 243.132 12.1809C243.256 12.2924 243.318 12.4334 243.318 12.6039C243.318 12.7809 243.256 12.9317 243.132 13.0563C243.015 13.1743 242.866 13.2333 242.684 13.2333Z" fill="white"/>
<path d="M249.815 12.1514V19.4493H248.917V18.6231C248.709 18.9116 248.446 19.1313 248.128 19.2821C247.809 19.4329 247.458 19.5083 247.075 19.5083C246.574 19.5083 246.126 19.3968 245.729 19.1739C245.332 18.9509 245.02 18.6395 244.793 18.2395C244.572 17.833 244.461 17.3675 244.461 16.8429C244.461 16.3183 244.572 15.8561 244.793 15.4561C245.02 15.0561 245.332 14.7447 245.729 14.5218C246.126 14.2988 246.574 14.1874 247.075 14.1874C247.445 14.1874 247.786 14.2595 248.098 14.4037C248.41 14.5414 248.67 14.748 248.878 15.0234V12.1514H249.815ZM247.153 18.6821C247.478 18.6821 247.773 18.6067 248.04 18.4559C248.306 18.2985 248.514 18.0822 248.664 17.8068C248.813 17.5248 248.888 17.2035 248.888 16.8429C248.888 16.4823 248.813 16.1643 248.664 15.8889C248.514 15.6069 248.306 15.3905 248.04 15.2397C247.773 15.0889 247.478 15.0135 247.153 15.0135C246.821 15.0135 246.522 15.0889 246.256 15.2397C245.996 15.3905 245.788 15.6069 245.632 15.8889C245.482 16.1643 245.407 16.4823 245.407 16.8429C245.407 17.2035 245.482 17.5248 245.632 17.8068C245.788 18.0822 245.996 18.2985 246.256 18.4559C246.522 18.6067 246.821 18.6821 247.153 18.6821Z" fill="white"/>
<path d="M256.256 16.8724C256.256 16.9445 256.25 17.0396 256.237 17.1576H252.044C252.102 17.6166 252.301 17.9871 252.639 18.269C252.983 18.5444 253.409 18.6821 253.916 18.6821C254.534 18.6821 255.031 18.4723 255.408 18.0526L255.925 18.6624C255.691 18.9378 255.398 19.1476 255.047 19.2919C254.703 19.4362 254.316 19.5083 253.887 19.5083C253.341 19.5083 252.857 19.3968 252.434 19.1739C252.011 18.9444 251.683 18.6264 251.449 18.2198C251.222 17.8133 251.108 17.3543 251.108 16.8429C251.108 16.338 251.218 15.8823 251.439 15.4758C251.667 15.0693 251.976 14.7545 252.366 14.5316C252.762 14.3021 253.208 14.1874 253.702 14.1874C254.196 14.1874 254.634 14.3021 255.018 14.5316C255.408 14.7545 255.71 15.0693 255.925 15.4758C256.146 15.8823 256.256 16.3479 256.256 16.8724ZM253.702 14.984C253.253 14.984 252.876 15.1217 252.57 15.3971C252.271 15.6725 252.096 16.0331 252.044 16.479H255.359C255.307 16.0397 255.128 15.6823 254.823 15.4069C254.524 15.125 254.15 14.984 253.702 14.984Z" fill="white"/>
<path d="M260.315 14.1874C260.972 14.1874 261.492 14.3808 261.876 14.7676C262.266 15.1479 262.461 15.7086 262.461 16.4495V19.4493H261.525V16.5577C261.525 16.0528 261.404 15.6725 261.164 15.4168C260.923 15.1611 260.579 15.0332 260.13 15.0332C259.623 15.0332 259.223 15.184 258.931 15.4856C258.638 15.7807 258.492 16.2069 258.492 16.7642V19.4493H257.556V14.2365H258.453V15.0234C258.642 14.7545 258.895 14.548 259.214 14.4037C259.539 14.2595 259.906 14.1874 260.315 14.1874Z" fill="white"/>
<path d="M267.099 19.1444C266.962 19.2624 266.793 19.3542 266.592 19.4198C266.39 19.4788 266.182 19.5083 265.968 19.5083C265.448 19.5083 265.045 19.3673 264.759 19.0854C264.473 18.8034 264.329 18.4002 264.329 17.8756V15.0135H263.452V14.2365H264.329V13.0956H265.266V14.2365H266.748V15.0135H265.266V17.8363C265.266 18.1182 265.334 18.3346 265.47 18.4854C265.613 18.6362 265.815 18.7116 266.075 18.7116C266.361 18.7116 266.605 18.6297 266.806 18.4657L267.099 19.1444Z" fill="white"/>
<path d="M201.89 22.5137V26.2287H201.527V22.8533H199.323V26.2287H198.96V22.5137H201.89Z" fill="white"/>
<path d="M204.906 26.2552C204.654 26.2552 204.427 26.1951 204.224 26.0748C204.022 25.951 203.863 25.7811 203.747 25.5653C203.631 25.3495 203.573 25.1054 203.573 24.8329C203.573 24.5605 203.631 24.3163 203.747 24.1005C203.863 23.8847 204.022 23.7166 204.224 23.5963C204.427 23.476 204.654 23.4159 204.906 23.4159C205.158 23.4159 205.385 23.476 205.588 23.5963C205.79 23.7166 205.947 23.8847 206.06 24.1005C206.176 24.3163 206.234 24.5605 206.234 24.8329C206.234 25.1054 206.176 25.3495 206.06 25.5653C205.947 25.7811 205.79 25.951 205.588 26.0748C205.385 26.1951 205.158 26.2552 204.906 26.2552ZM204.906 25.9209C205.092 25.9209 205.258 25.8767 205.404 25.7882C205.553 25.6962 205.669 25.5671 205.752 25.4008C205.835 25.2345 205.876 25.0452 205.876 24.8329C205.876 24.6206 205.835 24.4313 205.752 24.265C205.669 24.0988 205.553 23.9714 205.404 23.8829C205.258 23.7909 205.092 23.7449 204.906 23.7449C204.72 23.7449 204.553 23.7909 204.404 23.8829C204.258 23.9714 204.141 24.0988 204.055 24.265C203.972 24.4313 203.931 24.6206 203.931 24.8329C203.931 25.0452 203.972 25.2345 204.055 25.4008C204.141 25.5671 204.258 25.6962 204.404 25.7882C204.553 25.8767 204.72 25.9209 204.906 25.9209Z" fill="white"/>
<path d="M210.76 23.4371V26.2287H210.437V24.0209L209.377 25.889H209.218L208.158 24.0156V26.2287H207.835V23.4371H208.193L209.303 25.4486L210.432 23.4371H210.76Z" fill="white"/>
<path d="M213.691 26.2552C213.439 26.2552 213.212 26.1951 213.009 26.0748C212.807 25.951 212.648 25.7811 212.532 25.5653C212.416 25.3495 212.358 25.1054 212.358 24.8329C212.358 24.5605 212.416 24.3163 212.532 24.1005C212.648 23.8847 212.807 23.7166 213.009 23.5963C213.212 23.476 213.439 23.4159 213.691 23.4159C213.943 23.4159 214.17 23.476 214.373 23.5963C214.575 23.7166 214.732 23.8847 214.845 24.1005C214.961 24.3163 215.019 24.5605 215.019 24.8329C215.019 25.1054 214.961 25.3495 214.845 25.5653C214.732 25.7811 214.575 25.951 214.373 26.0748C214.17 26.1951 213.943 26.2552 213.691 26.2552ZM213.691 25.9209C213.877 25.9209 214.043 25.8767 214.189 25.7882C214.338 25.6962 214.454 25.5671 214.537 25.4008C214.62 25.2345 214.661 25.0452 214.661 24.8329C214.661 24.6206 214.62 24.4313 214.537 24.265C214.454 24.0988 214.338 23.9714 214.189 23.8829C214.043 23.7909 213.877 23.7449 213.691 23.7449C213.505 23.7449 213.338 23.7909 213.189 23.8829C213.043 23.9714 212.927 24.0988 212.84 24.265C212.757 24.4313 212.716 24.6206 212.716 24.8329C212.716 25.0452 212.757 25.2345 212.84 25.4008C212.927 25.5671 213.043 25.6962 213.189 25.7882C213.338 25.8767 213.505 25.9209 213.691 25.9209Z" fill="white"/>
<path d="M218.471 23.7715H216.973V26.2287H216.62V23.4371H218.471V23.7715Z" fill="white"/>
<path d="M220.728 23.4159C221.069 23.4159 221.331 23.5079 221.514 23.6919C221.696 23.8723 221.787 24.1412 221.787 24.4986V26.2287H221.449V25.7935C221.369 25.9386 221.252 26.0518 221.096 26.1332C220.943 26.2146 220.761 26.2552 220.549 26.2552C220.257 26.2552 220.024 26.1809 219.852 26.0323C219.68 25.8837 219.593 25.6874 219.593 25.4432C219.593 25.2062 219.673 25.0151 219.832 24.8701C219.995 24.725 220.252 24.6525 220.603 24.6525H221.434V24.4826C221.434 24.242 221.371 24.0598 221.245 23.936C221.119 23.8086 220.935 23.7449 220.693 23.7449C220.527 23.7449 220.368 23.775 220.215 23.8352C220.063 23.8918 219.932 23.9714 219.822 24.074L219.663 23.7927C219.796 23.6724 219.955 23.5804 220.141 23.5167C220.326 23.4495 220.522 23.4159 220.728 23.4159ZM220.603 25.958C220.802 25.958 220.973 25.9103 221.116 25.8147C221.258 25.7157 221.364 25.5742 221.434 25.3902V24.9338H220.613C220.165 24.9338 219.942 25.1 219.942 25.4326C219.942 25.5954 220 25.7245 220.116 25.8201C220.232 25.912 220.394 25.958 220.603 25.958Z" fill="white"/>
<path d="M225.862 24.9497H223.673C223.693 25.2398 223.797 25.4751 223.986 25.6555C224.175 25.8324 224.414 25.9209 224.703 25.9209C224.865 25.9209 225.015 25.8908 225.151 25.8307C225.287 25.767 225.404 25.675 225.504 25.5547L225.703 25.7988C225.587 25.9474 225.441 26.0606 225.265 26.1385C225.093 26.2163 224.902 26.2552 224.693 26.2552C224.424 26.2552 224.185 26.1951 223.976 26.0748C223.771 25.951 223.61 25.7811 223.494 25.5653C223.378 25.3495 223.32 25.1054 223.32 24.8329C223.32 24.5605 223.374 24.3163 223.484 24.1005C223.597 23.8847 223.749 23.7166 223.942 23.5963C224.137 23.476 224.356 23.4159 224.598 23.4159C224.84 23.4159 225.058 23.476 225.25 23.5963C225.442 23.7166 225.593 23.8847 225.703 24.1005C225.812 24.3128 225.867 24.5569 225.867 24.8329L225.862 24.9497ZM224.598 23.7396C224.346 23.7396 224.134 23.8263 223.962 23.9997C223.792 24.1695 223.696 24.3924 223.673 24.6684H225.529C225.505 24.3924 225.408 24.1695 225.235 23.9997C225.066 23.8263 224.854 23.7396 224.598 23.7396Z" fill="white"/>
<path d="M230.42 23.4371V26.2287H230.097V24.0209L229.037 25.889H228.878L227.818 24.0156V26.2287H227.495V23.4371H227.853L228.962 25.4486L230.092 23.4371H230.42Z" fill="white"/>
<path d="M236.086 24.7852C236.44 24.8736 236.618 25.1018 236.618 25.4698C236.618 25.7139 236.533 25.9014 236.364 26.0323C236.195 26.1633 235.943 26.2287 235.608 26.2287H234.419V23.4371H235.573C235.872 23.4371 236.105 23.499 236.275 23.6229C236.444 23.7467 236.528 23.9236 236.528 24.1536C236.528 24.3057 236.489 24.4366 236.409 24.5463C236.333 24.6525 236.225 24.7321 236.086 24.7852ZM234.762 24.679H235.548C235.751 24.679 235.905 24.6383 236.011 24.5569C236.12 24.4756 236.175 24.357 236.175 24.2014C236.175 24.0457 236.12 23.9289 236.011 23.8511C235.905 23.7732 235.751 23.7343 235.548 23.7343H234.762V24.679ZM235.593 25.9315C235.819 25.9315 235.988 25.8926 236.101 25.8147C236.213 25.7369 236.27 25.6148 236.27 25.4486C236.27 25.2823 236.218 25.1602 236.115 25.0824C236.013 25.001 235.85 24.9603 235.628 24.9603H234.762V25.9315H235.593Z" fill="white"/>
<path d="M241.534 26.2552C241.275 26.2552 241.043 26.1951 240.837 26.0748C240.635 25.9545 240.476 25.7864 240.36 25.5706C240.244 25.3513 240.186 25.1054 240.186 24.8329C240.186 24.5605 240.244 24.3163 240.36 24.1005C240.476 23.8847 240.635 23.7166 240.837 23.5963C241.043 23.476 241.275 23.4159 241.534 23.4159C241.759 23.4159 241.96 23.4637 242.136 23.5592C242.315 23.6512 242.456 23.7874 242.559 23.9678L242.295 24.1589C242.209 24.0209 242.099 23.9183 241.967 23.8511C241.834 23.7803 241.69 23.7449 241.534 23.7449C241.345 23.7449 241.174 23.7909 241.022 23.8829C240.872 23.9714 240.755 24.0988 240.668 24.265C240.585 24.4313 240.544 24.6206 240.544 24.8329C240.544 25.0487 240.585 25.2398 240.668 25.4061C240.755 25.5688 240.872 25.6962 241.022 25.7882C241.174 25.8767 241.345 25.9209 241.534 25.9209C241.69 25.9209 241.834 25.8873 241.967 25.8201C242.099 25.7528 242.209 25.6502 242.295 25.5122L242.559 25.7033C242.456 25.8837 242.315 26.0217 242.136 26.1173C241.957 26.2092 241.756 26.2552 241.534 26.2552Z" fill="white"/>
<path d="M246.14 23.4371V26.2287H245.787V23.7715H244.533L244.499 24.4614C244.472 25.0417 244.409 25.4875 244.31 25.7988C244.21 26.1102 244.033 26.2659 243.777 26.2659C243.708 26.2659 243.623 26.2517 243.524 26.2234L243.548 25.8997C243.608 25.9138 243.65 25.9209 243.673 25.9209C243.809 25.9209 243.912 25.8537 243.981 25.7192C244.051 25.5848 244.097 25.4185 244.121 25.2203C244.144 25.0222 244.164 24.7604 244.18 24.4349L244.225 23.4371H246.14Z" fill="white"/>
<path d="M249.07 26.2552C248.818 26.2552 248.591 26.1951 248.388 26.0748C248.186 25.951 248.027 25.7811 247.911 25.5653C247.795 25.3495 247.737 25.1054 247.737 24.8329C247.737 24.5605 247.795 24.3163 247.911 24.1005C248.027 23.8847 248.186 23.7166 248.388 23.5963C248.591 23.476 248.818 23.4159 249.07 23.4159C249.322 23.4159 249.549 23.476 249.752 23.5963C249.954 23.7166 250.111 23.8847 250.224 24.1005C250.34 24.3163 250.398 24.5605 250.398 24.8329C250.398 25.1054 250.34 25.3495 250.224 25.5653C250.111 25.7811 249.954 25.951 249.752 26.0748C249.549 26.1951 249.322 26.2552 249.07 26.2552ZM249.07 25.9209C249.256 25.9209 249.422 25.8767 249.568 25.7882C249.717 25.6962 249.833 25.5671 249.916 25.4008C249.999 25.2345 250.04 25.0452 250.04 24.8329C250.04 24.6206 249.999 24.4313 249.916 24.265C249.833 24.0988 249.717 23.9714 249.568 23.8829C249.422 23.7909 249.256 23.7449 249.07 23.7449C248.884 23.7449 248.717 23.7909 248.567 23.8829C248.422 23.9714 248.305 24.0988 248.219 24.265C248.136 24.4313 248.095 24.6206 248.095 24.8329C248.095 25.0452 248.136 25.2345 248.219 25.4008C248.305 25.5671 248.422 25.6962 248.567 25.7882C248.717 25.8767 248.884 25.9209 249.07 25.9209Z" fill="white"/>
<path d="M254.2 24.9868H253.633V26.2287H253.28V24.9868H252.713L251.912 26.2287H251.489L252.429 24.7905L251.563 23.4371H251.947L252.713 24.6631H253.28V23.4371H253.633V24.6631H254.2L254.971 23.4371H255.355L254.489 24.7958L255.429 26.2287H255.006L254.2 24.9868Z" fill="white"/>
<path d="M256.863 23.4371H257.216V24.6737H258.863V23.4371H259.216V26.2287H258.863V24.9974H257.216V26.2287H256.863V23.4371Z" fill="white"/>
<path d="M262.146 26.2552C261.893 26.2552 261.666 26.1951 261.464 26.0748C261.262 25.951 261.102 25.7811 260.986 25.5653C260.87 25.3495 260.812 25.1054 260.812 24.8329C260.812 24.5605 260.87 24.3163 260.986 24.1005C261.102 23.8847 261.262 23.7166 261.464 23.5963C261.666 23.476 261.893 23.4159 262.146 23.4159C262.398 23.4159 262.625 23.476 262.827 23.5963C263.029 23.7166 263.187 23.8847 263.3 24.1005C263.416 24.3163 263.474 24.5605 263.474 24.8329C263.474 25.1054 263.416 25.3495 263.3 25.5653C263.187 25.7811 263.029 25.951 262.827 26.0748C262.625 26.1951 262.398 26.2552 262.146 26.2552ZM262.146 25.9209C262.331 25.9209 262.497 25.8767 262.643 25.7882C262.792 25.6962 262.908 25.5671 262.991 25.4008C263.074 25.2345 263.116 25.0452 263.116 24.8329C263.116 24.6206 263.074 24.4313 262.991 24.265C262.908 24.0988 262.792 23.9714 262.643 23.8829C262.497 23.7909 262.331 23.7449 262.146 23.7449C261.96 23.7449 261.792 23.7909 261.643 23.8829C261.497 23.9714 261.381 24.0988 261.295 24.265C261.212 24.4313 261.17 24.6206 261.17 24.8329C261.17 25.0452 261.212 25.2345 261.295 25.4008C261.381 25.5671 261.497 25.6962 261.643 25.7882C261.792 25.8767 261.96 25.9209 262.146 25.9209Z" fill="white"/>
<path d="M268 23.4371V26.2287H267.677V24.0209L266.617 25.889H266.458L265.398 24.0156V26.2287H265.075V23.4371H265.433L266.542 25.4486L267.672 23.4371H268Z" fill="white"/>
<path d="M14.4458 9.75911L14.9339 9.56324C15.033 9.74118 15.1251 9.92325 15.2099 10.1091C15.6282 11.0256 15.8613 12.0153 15.8957 13.0216C15.8996 13.1334 15.9009 13.2451 15.8999 13.3568L14.4458 9.75911Z" fill="white"/>
<path d="M21.0955 26.212L18.9342 20.8646C19.5887 19.9449 20.1229 18.9429 20.5216 17.8826C21.1278 16.271 21.4094 14.5562 21.3505 12.8361C21.3431 12.6203 21.3304 12.405 21.3124 12.1903L26.9794 26.212H21.0955Z" fill="white"/>
<path d="M31.6943 2.14381e-05H37.5783L26.9844 26.212H21.1004L31.6943 2.14381e-05Z" fill="white"/>
<path d="M19.6648 8.09055C20.3258 9.68064 20.666 11.3849 20.666 13.106C20.666 14.8271 20.3258 16.5313 19.6648 18.1214C19.0038 19.7115 18.035 21.1563 16.8136 22.3733C15.5923 23.5903 14.1424 24.5557 12.5466 25.2144C10.9508 25.873 9.24052 26.212 7.51329 26.212V20.7734C8.52378 20.7734 9.52437 20.5751 10.4579 20.1898C11.3915 19.8044 12.2398 19.2397 12.9543 18.5277C13.6688 17.8157 14.2356 16.9704 14.6223 16.0402C15.009 15.1099 15.208 14.1129 15.208 13.106C15.208 12.0991 15.009 11.1021 14.6223 10.1718C14.2356 9.24155 13.6688 8.3963 12.9543 7.68432C12.2398 6.97233 11.3915 6.40755 10.4579 6.02223C9.52437 5.63691 8.52377 5.43858 7.51329 5.43858V0C9.24052 1.72888e-07 10.9508 0.338996 12.5466 0.997635C14.1424 1.65627 15.5923 2.62165 16.8136 3.83866C18.035 5.05566 19.0038 6.50046 19.6648 8.09055Z" fill="white"/>
<path d="M0 5.18664e-07L7.51329 0V5.43858L0 5.43858V5.18664e-07Z" fill="white"/>
<path d="M7.51329 20.7734L0 20.7734V26.212L7.51329 26.212V20.7734Z" fill="white"/>
</svg>
